<?xml version="1.0" standalone="no"?>
<!DOCTYPE svg PUBLIC "-//W3C//DTD SVG 1.1//EN" "http://www.w3.org/Graphics/SVG/1.1/DTD/svg11.dtd" >
<svg xmlns="http://www.w3.org/2000/svg">
<metadata></metadata>
<defs>
<font id="nobilebold" horiz-adv-x="1281" >
<font-face units-per-em="2048" ascent="1638" descent="-410" />
<missing-glyph horiz-adv-x="659" />
<glyph unicode="&#xd;" horiz-adv-x="682" />
<glyph unicode=" "  horiz-adv-x="659" />
<glyph unicode="&#x09;" horiz-adv-x="659" />
<glyph unicode="&#xa0;" horiz-adv-x="659" />
<glyph unicode="!" horiz-adv-x="731" d="M577 1530l-108 -1066h-210l-111 1066h429zM187 182q0 83 53 138.5t135.5 55.5t136 -55.5t53.5 -138.5t-53.5 -138.5t-136 -55.5t-135.5 55.5t-53 138.5z" />
<glyph unicode="&#x22;" horiz-adv-x="1041" d="M78 1578h424q-1 0 -60 -387l-60 -387h-220zM600 1578h424q-1 0 -60 -387l-60 -387h-220z" />
<glyph unicode="#" horiz-adv-x="1269" d="M722 429h-201l-64 -429h-228l64 429h-160v153h177l32 247h-209v153h230l58 429h226l-58 -429h205l54 429h229l-57 -429h154v-153h-173l-33 -247h206v-153h-225l-62 -429h-228zM540 582h198l31 247h-197z" />
<glyph unicode="$" horiz-adv-x="1376" d="M627 1599v113h110v-119q141 -12 256 -43t186 -68l-85 -257l-12 4l-32 11l-48 16q-27 9 -60 18.5t-66.5 17.5t-70.5 15t-68 9v-345l156 -58q77 -29 139.5 -69t112 -92.5t76.5 -121t27 -145.5q0 -244 -134 -373t-377 -146v-113h-110v111q-90 6 -181 25.5t-161.5 45.5 t-100.5 39l-53 23l-1 1l65 265q0 -3 75.5 -32.5t183 -60t173.5 -30.5v442l-281 117q-266 110 -266 369q0 95 28.5 169.5t78 123t120 80t149 45t171.5 13.5zM627 1320q-40 -1 -70 -5t-58.5 -14t-47 -26t-29 -42t-10.5 -62q0 -17 4 -30t16 -30t38 -33.5t67 -31.5l90 -34v308z M737 251q77 17 125 63.5t48 122.5q0 64 -31 109t-109 77l-33 14v-386z" />
<glyph unicode="%" horiz-adv-x="2181" d="M711 1150q0 66 -11.5 112t-33.5 71t-49.5 35.5t-65.5 10.5q-76 0 -116 -52.5t-40 -176.5q0 -69 11.5 -116t34 -72t48.5 -35t62 -10q77 0 118.5 53.5t41.5 179.5zM164 1130q0 81 13 147t34.5 111.5t52.5 80.5t63.5 55.5t71.5 33t73 17t71 4.5q94 0 167.5 -26.5t118 -68.5 t74 -99.5t40.5 -114t11 -118.5q0 -61 -10.5 -118.5t-39 -117.5t-72 -104.5t-116.5 -72.5t-165 -28q-65 0 -120 15t-93.5 40.5t-69.5 60.5t-50 72.5t-31.5 79.5t-17.5 79t-5 72zM1769 439q0 66 -11 112t-33 71t-50 35.5t-66 10.5q-75 0 -115.5 -52.5t-40.5 -176.5 q0 -69 12 -116t34 -72t48.5 -35t61.5 -10q77 0 118.5 53.5t41.5 179.5zM560 -29l767 1703l227 -82l-775 -1699zM1222 419q0 81 13 147t34.5 111.5t52.5 80.5t63.5 55.5t71.5 33t73 17t71 4.5q94 0 167.5 -26.5t118.5 -68.5t74 -99.5t40 -114t11 -118.5q0 -61 -10.5 -118.5 t-39 -117.5t-72 -104.5t-116 -72.5t-165.5 -28q-65 0 -119.5 15t-93.5 40.5t-70 60.5t-50 72.5t-31.5 79.5t-17.5 79t-5 72z" />
<glyph unicode="&#x26;" horiz-adv-x="1783" d="M991 1235q0 77 -50 114.5t-136 37.5q-187 0 -187 -145q0 -21 5 -41.5t13.5 -38t20 -34t23.5 -30.5l25 -25q12 -12 23 -21l20 -16q9 -6 14 -10l5 -3q38 12 66 23t60 29.5t52 39.5t33 52t13 68zM823 -40q-112 0 -208 16.5t-179 53t-141.5 91.5t-91.5 135t-33 179 q0 77 20 142t52 111t81.5 86.5t97 67.5t111.5 55q-9 7 -23 19.5t-51 52.5t-65 81t-51 100.5t-23 114.5q0 105 62.5 185t168 121t237.5 41q137 0 242.5 -41t164.5 -118.5t59 -179.5q0 -97 -29 -183t-94.5 -157.5t-160.5 -106.5l322 -277v352l287 -7q0 -130 -13 -264.5 t-27 -203.5l-13 -69l266 -227l-148 -184l-239 202l-20 -24q-97 -98 -299 -140q-118 -24 -262 -24zM483 459q0 -112 81 -172t259 -60q70 0 133.5 9.5t104.5 23t71.5 28t44 23.5t13.5 11l-447 386q-56 -14 -99.5 -33t-81.5 -48t-58.5 -71.5t-20.5 -96.5z" />
<glyph unicode="'" horiz-adv-x="601" d="M78 1578h424q-1 0 -60 -387l-60 -387h-220z" />
<glyph unicode="(" horiz-adv-x="828" d="M129 680q0 164 34.5 317t96.5 279t144 227.5t180 175.5l159 -211q-132 -125 -213.5 -332.5t-81.5 -455.5q0 -246 82.5 -446.5t216.5 -327.5l-159 -211q-99 74 -180.5 173.5t-145 222.5t-98.5 274.5t-35 314.5z" />
<glyph unicode=")" horiz-adv-x="827" d="M688 694q0 -164 -34.5 -317t-96.5 -279t-144 -227.5t-180 -175.5l-159 211q132 125 213.5 332.5t81.5 455.5q0 246 -82.5 446.5t-216.5 327.5l159 211q99 -74 180.5 -173.5t145 -222.5t98.5 -274.5t35 -314.5z" />
<glyph unicode="*" horiz-adv-x="1012" d="M507 1416l129 224l195 -116l-136 -236h252v-194h-249l135 -230l-198 -118l-125 220l-126 -218l-196 116l135 230h-268v194h271l-137 240l194 110z" />
<glyph unicode="+" horiz-adv-x="1064" d="M959 450h-279v-353h-288v353h-277v269h277v350h288v-350h279v-269z" />
<glyph unicode="," horiz-adv-x="722" d="M162 0v415h418v-362q0 -67 -20.5 -121.5t-51.5 -90t-81 -65.5t-95.5 -47.5t-106.5 -35.5l-62 114q95 34 136 76t41 117h-178z" />
<glyph unicode="-" horiz-adv-x="1120" d="M950 574h-794v262h794v-262z" />
<glyph unicode="." horiz-adv-x="571" d="M98 194q0 83 55.5 138.5t137.5 55.5t139 -55.5t57 -138.5t-57 -138.5t-139 -55.5t-137.5 55.5t-55.5 138.5z" />
<glyph unicode="/" horiz-adv-x="915" d="M85 -60l571 1727l281 -89l-576 -1725z" />
<glyph unicode="0" horiz-adv-x="1457" d="M725 233q59 0 104 18.5t74.5 51t48 80t26 100.5t7.5 119q0 75 -13.5 135t-43 108t-81 74.5t-122.5 26.5q-57 0 -101.5 -19.5t-73 -52t-47 -78.5t-26 -96t-6.5 -108q1 -83 13.5 -146t41 -112.5t79 -75t120.5 -25.5zM725 1206q190 0 323.5 -75.5t199 -213t65.5 -327.5 q0 -189 -66.5 -327t-199.5 -214t-321.5 -76t-321 76.5t-198 214t-65.5 326.5q0 290 150 453t434 163z" />
<glyph unicode="1" horiz-adv-x="912" d="M350 0v892l-156 -67l-94 238l267 108l331 -2v-1169h-348z" />
<glyph unicode="2" horiz-adv-x="1174" d="M724 786q0 73 -36.5 108.5t-117.5 35.5q-44 0 -101 -14t-111 -36l-80 -33q-26 -11 -46 -21l-1 -1l-91 239l2 1q25 13 56.5 26.5t99.5 40t146.5 43t147.5 16.5t133 -11t125.5 -37.5t106.5 -66t72.5 -102t27.5 -140.5q0 -118 -57.5 -214.5t-201.5 -223.5l-144 -128h372 v-268h-858v217l325 275q4 3 30.5 25t35.5 30l33 29q25 22 35 34l29 32q20 21 29 36t19.5 34.5t15 37.5t4.5 36z" />
<glyph unicode="3" horiz-adv-x="1179" d="M684 829q0 56 -45.5 83.5t-119.5 27.5q-26 0 -55 -4t-56 -10t-53.5 -13.5t-48 -15t-38 -14t-25.5 -9.5l-9 -4l-114 229l18 10q19 10 54 25.5t78.5 30.5t103.5 26t120 11q91 0 164.5 -12t136.5 -40t105.5 -71.5t67 -108t26.5 -147.5q2 -94 -53 -173.5t-148 -102.5 q102 -25 169.5 -113.5t67.5 -194.5t-39 -187t-109.5 -130t-163.5 -73.5t-206 -24.5q-64 0 -126 7t-105 17t-76.5 20t-49.5 17l-17 7l83 252h1q22 -9 52 -19.5t101 -26.5t127 -16q101 0 152.5 35t51.5 119q0 60 -43.5 104.5t-110 65t-142.5 18.5v246q55 0 102 8.5t86.5 26.5 t62.5 50t23 74z" />
<glyph unicode="4" d="M733 1217l252 -66v-834h180v-258h-180v-276l-288 1v275h-572l-41 201zM417 315h280v418z" />
<glyph unicode="5" horiz-adv-x="1174" d="M171 161l21 -8q14 -5 55 -18t81 -22.5t94.5 -18t100.5 -8.5q108 -1 168 47.5t59 146.5q-1 103 -51.5 165t-148.5 61q-101 0 -250 -81l-140 124v620h805v-245h-524v-225q0 2 16.5 11.5t52 20t74.5 10.5q214 0 339.5 -123.5t125.5 -333.5q0 -144 -67.5 -251.5t-187 -163 t-273.5 -51.5q-97 3 -201.5 29t-190.5 63z" />
<glyph unicode="6" horiz-adv-x="1267" d="M463 457q2 -69 14.5 -122t38 -93t68.5 -61t102 -21q44 0 77.5 14.5t54.5 39t34 60.5t18 74t5 85q0 92 -46 140t-135 48q-131 0 -231 -95v-69zM1189 386q0 -107 -34.5 -196.5t-98 -153.5t-158 -100t-210.5 -36q-128 0 -233.5 44t-174 119.5t-106 176.5t-37.5 216 q0 150 40.5 280t110.5 228t168.5 176.5t211.5 131t243 86.5l80 -264q-295 -60 -426 -234q72 14 136 14q109 0 202 -40t155 -107.5t96.5 -156t34.5 -184.5z" />
<glyph unicode="7" horiz-adv-x="1126" d="M1008 1169l82 -180l-588 -1225l-297 132l488 1015h-563v258h878z" />
<glyph unicode="8" horiz-adv-x="1306" d="M653.5 1323q102.5 0 190 -25t154 -72.5t104.5 -122t38 -167.5q0 -123 -74 -212t-189 -112q56 -8 108 -36.5t92.5 -71.5t65 -103t24.5 -126q0 -84 -28 -152t-76.5 -114t-115 -77t-140 -45t-154.5 -14t-154.5 14t-139.5 45t-114.5 77t-77 114t-28.5 152q0 66 24.5 126 t65.5 103t93 71.5t107 36.5q-114 23 -188.5 112t-74.5 212q0 93 38 167.5t104.5 122t154.5 72.5t190.5 25zM653.5 137q97.5 0 144.5 36t47 124q0 97 -49 155t-143 58t-143 -58t-49 -155q1 -88 48 -124t144.5 -36zM653 754q88 0 131 40t43 128q0 147 -174 147t-174 -147 q1 -88 43.5 -128t130.5 -40z" />
<glyph unicode="9" horiz-adv-x="1265" d="M431 684q-1 -85 46 -138t124 -53q35 0 93.5 4.5t99.5 8.5l40 4l15 138q-1 64 -13.5 113.5t-38.5 87.5t-69 58.5t-102 20.5t-98 -15.5t-59.5 -49t-28.5 -75t-9 -104.5zM605 245q-220 0 -354.5 120.5t-134.5 332.5q0 143 60.5 254.5t171.5 173.5t256 62q269 0 417.5 -146.5 t148.5 -408.5q0 -153 -49 -290t-128 -237t-182 -179.5t-208 -126.5t-209 -70l-78 266q151 31 260.5 102.5t170.5 164.5q-67 -18 -142 -18z" />
<glyph unicode=":" horiz-adv-x="749" d="M191 736v432h418v-432h-418zM191 0v432h418v-432h-418z" />
<glyph unicode=";" horiz-adv-x="749" d="M193 0v415h418v-362q0 -67 -20.5 -121.5t-51.5 -90t-81 -65.5t-95.5 -47.5t-106.5 -35.5l-62 114q95 34 136 76t41 117h-178zM191 736v432h418v-432h-418z" />
<glyph unicode="&#x3c;" horiz-adv-x="1194" d="M132 476v236l840 513l1 -301l-546 -330l546 -330l-1 -301z" />
<glyph unicode="=" horiz-adv-x="1188" d="M1073 644h-996v233h996v-233zM1073 269h-996v233h996v-233z" />
<glyph unicode="&#x3e;" horiz-adv-x="1135" d="M1032 476l-840 -513l-1 301l538 330l-538 330l1 301l840 -513v-236z" />
<glyph unicode="?" horiz-adv-x="1081" d="M682 1132q0 40 -13.5 68t-34 44t-55.5 24.5t-67 11t-80 2.5q-54 0 -138 -18t-141.5 -35.5t-57.5 -18.5l-81 253q55 28 94 41q153 51 354 51q118 0 215.5 -21t176 -65.5t122.5 -121.5t44 -182q0 -26 -2 -50t-12.5 -65.5t-29 -77.5t-54.5 -80.5t-84.5 -81.5t-125 -73 t-170.5 -63v-254h-321v409q28 11 72 25l78 26q34 11 76.5 27.5t74 31.5t63 36t52 43.5t33 51.5t12.5 62zM209 125q0 83 53.5 138.5t135.5 55.5t135.5 -55.5t53.5 -138.5t-53.5 -138.5t-135.5 -55.5t-135.5 55.5t-53.5 138.5z" />
<glyph unicode="@" horiz-adv-x="1959" d="M1053 987q-128 0 -202.5 -85t-74.5 -267q0 -73 37 -127.5t98 -54.5q45 0 84 17.5t67.5 44.5t53 70.5t41 85t31 98t23 99.5t18.5 100q1 1 -26 5.5t-71 9t-79 4.5zM970 -133q-188 -1 -345.5 54.5t-267 157t-170 246t-60.5 317.5q0 139 36.5 268.5t113.5 243t185.5 197.5 t261 132.5t332.5 48.5q160 0 305.5 -49.5t258 -140.5t179.5 -232t67 -310q0 -112 -32.5 -211.5t-92 -174t-119 -109t-236.5 -34.5q-84 0 -127.5 54.5t-43.5 149.5q0 25 3 52q-35 -99 -74 -155.5t-97 -85.5t-144 -29q-48 0 -93.5 10.5t-94 38.5t-84.5 72t-68 114.5t-32 166.5 q0 124 49.5 220t118.5 158t158.5 95t190.5 33q72 0 139.5 -13t123 -37.5t89 -65t33.5 -91.5q0 -16 -2 -27l-81 -465q131 22 189.5 95.5t58.5 196.5q0 265 -148 399.5t-419 134.5q-282 0 -452.5 -181.5t-170.5 -468.5q0 -271 159.5 -409t443.5 -138q126 0 264 55l54 -208 q-63 -37 -158.5 -56t-200.5 -19z" />
<glyph unicode="A" horiz-adv-x="1568" d="M787 1137l-202 -617h392zM578 1578h406l520 -1578h-369l-111 350h-486l-111 -350h-369z" />
<glyph unicode="B" horiz-adv-x="1558" d="M557 1323v-395h139q330 0 330 207q0 91 -45 130q-66 58 -283 58h-141zM676 254q166 0 203 10t65 20t44 26t30 38q27 40 27 117t-23 124.5t-72 72.5q-83 41 -256 41h-137v-449h119zM606 1578q272 0 405 -36.5t197 -81.5q144 -100 144 -300q0 -134 -97 -223.5t-245 -104.5 q291 -44 368 -207q31 -66 31 -163.5t-32 -178.5t-89 -134t-144 -87q-157 -62 -418 -62h-538v1578h418z" />
<glyph unicode="C" horiz-adv-x="1271" d="M443 782q0 -543 360 -543q181 0 340 109l100 -260q-86 -72 -301 -104q-83 -13 -173 -13q-324 0 -508.5 213.5t-184.5 607t181 602t512 208.5q220 0 399 -74q39 -17 57 -29l18 -12l-100 -260l-18 13l-23 15q-126 81 -306.5 81t-266.5 -132t-86 -422z" />
<glyph unicode="D" horiz-adv-x="1610" d="M1114 650q4 58 4 135t-4 134.5t-16.5 117t-33.5 101.5q-52 98 -151.5 143t-271.5 45h-83v-1072h83q259 0 358 100.5t115 295.5zM1488 782q0 -379 -197.5 -580.5t-610.5 -201.5h-491v1578h491q808 0 808 -796z" />
<glyph unicode="E" horiz-adv-x="1368" d="M1269 0h-1080v1578h1070v-269h-702v-380h612v-226h-612v-437h712v-266z" />
<glyph unicode="F" d="M557 702v-702h-368v1578h1080v-269h-712v-381h626v-226h-626z" />
<glyph unicode="G" horiz-adv-x="1612" d="M1122 304v351h-358v224h681v-879h-237l-48 126q-40 -76 -140 -119.5t-228 -43.5q-313 0 -493 206t-180 601q0 388 200 608.5t570 220.5q95 0 178.5 -12.5t135.5 -30.5t89.5 -36t53.5 -30l17 -11l-107 -246q-22 11 -59.5 28t-133 45.5t-166.5 28.5q-195 0 -302 -144 t-107 -423q0 -154 35 -270.5t111.5 -187t187.5 -70.5q180 0 300 64z" />
<glyph unicode="H" horiz-adv-x="1602" d="M1080 0v704h-558v-704h-369v1578h369v-648h558v648h369v-1578h-369z" />
<glyph unicode="I" horiz-adv-x="864" d="M77 170h170v1237h-170v171h710v-171h-171v-1237h171v-170h-710v170z" />
<glyph unicode="J" horiz-adv-x="895" d="M31 154q122 14 188.5 48.5t97.5 106t31 197.5v1072h369v-1039q8 -325 -134.5 -471.5t-457.5 -153.5z" />
<glyph unicode="K" horiz-adv-x="1511" d="M560 676v-676h-369v1578h369v-677h82l448 677h376l-533 -781l588 -797h-385l-502 676h-74z" />
<glyph unicode="L" horiz-adv-x="1190" d="M1190 0h-1051v1578h368v-1325h683v-253z" />
<glyph unicode="M" horiz-adv-x="2004" d="M835 0l-358 1085v-1085h-306v1578h435l392 -1170l406 1170h436v-1578h-306v1085l-355 -1085h-344z" />
<glyph unicode="N" horiz-adv-x="1643" d="M1481 0h-381l-622 1074v-1074h-329v1578h394l611 -1059v1059h327v-1578z" />
<glyph unicode="O" horiz-adv-x="1627" d="M813 1605q357 0 533.5 -214.5t176.5 -601.5q0 -190 -42.5 -339.5t-128.5 -256.5t-222 -164t-317 -57t-317 57t-222 164t-128.5 256.5t-42.5 339.5q0 387 176.5 601.5t533.5 214.5zM813 1339q-79 0 -139 -28.5t-98 -76.5t-61.5 -119.5t-33 -150t-9.5 -175.5t9.5 -175.5 t33 -150t61.5 -120t98 -77t139 -28.5t139 28.5t98 77t61.5 120t33 150t9.5 175.5t-9.5 175.5t-33 150t-61.5 119.5t-98 76.5t-139 28.5z" />
<glyph unicode="P" horiz-adv-x="1456" d="M568 772q73 0 131.5 8t110.5 27.5t87 50t55 78.5t20 112q0 87 -25 147.5t-75 95t-116 49t-158 14.5h-90v-582h60zM1340 1052q0 -118 -36.5 -206t-101 -143.5t-163.5 -89.5t-211 -47.5t-258 -13.5h-62v-552h-369v1578h459q139 0 247 -14.5t203.5 -50.5t158 -94.5t98 -151 t35.5 -215.5z" />
<glyph unicode="Q" horiz-adv-x="1627" d="M813 1339q-79 0 -138.5 -28.5t-97.5 -76.5t-62 -119.5t-33.5 -150t-9.5 -175.5t9.5 -175.5t33.5 -150t61.5 -120t97.5 -77t139 -28.5t139 28.5t97.5 77t61.5 120t33.5 150t9.5 175.5t-9.5 175.5t-33.5 150t-62 119.5t-97.5 76.5t-138.5 28.5zM813 1605 q357 0 533.5 -214.5t176.5 -601.5q0 -219 -55.5 -383t-173 -272t-293.5 -144l288 -224l-174 -186l-456 404q-141 22 -247.5 88t-174 170.5t-101 241t-33.5 305.5q0 387 176.5 601.5t533.5 214.5z" />
<glyph unicode="R" horiz-adv-x="1473" d="M885 786q109 -11 190.5 -35t149.5 -69t103.5 -120.5t35.5 -179.5v-382h-365v407q0 80 -25.5 134t-77 83t-115.5 40.5t-155 11.5h-118v-676h-369v1578h419q187 0 323.5 -17t227 -48.5t144.5 -82.5t76.5 -112.5t22.5 -144.5q0 -82 -22.5 -145.5t-63 -106.5t-100 -72 t-128 -44t-153.5 -19zM551 899q91 0 155.5 5.5t119.5 20.5t88 41t51.5 67t18.5 97q0 54 -14 92t-42 64t-76.5 41t-110 21t-148.5 6h-85v-455h43z" />
<glyph unicode="S" horiz-adv-x="1367" d="M1265 466q0 -507 -584 -507q-87 0 -176 16t-147.5 35t-120 47.5t-79.5 38.5l-39 24l-2 1l81 277q11 -7 30.5 -18t76.5 -39t110 -49t120 -38.5t117 -16.5q47 1 74.5 2t63.5 6t56.5 15t40 26.5t28 42.5t8.5 61q0 64 -30.5 108t-109.5 76l-424 174q-131 54 -198.5 162 t-67.5 249q0 90 33.5 165.5t90 127t132 88t158 53t168.5 16.5q76 0 159.5 -14.5t148.5 -34.5t119.5 -40t84.5 -34l29 -14l-94 -278q-8 6 -22 15t-58.5 32.5t-90 41.5t-111 33t-127.5 15q-40 0 -70.5 -1.5t-65.5 -6.5t-60 -15t-46.5 -25.5t-32 -39.5t-10.5 -55q0 -24 6 -42.5 t35 -44t81 -46.5l356 -141q148 -59 253.5 -179t105.5 -269z" />
<glyph unicode="T" horiz-adv-x="1157" d="M1168 1324h-402v-1324h-369v1324h-409v254h1180v-254z" />
<glyph unicode="U" horiz-adv-x="1615" d="M509 719q3 -183 14 -235.5t22 -88t26.5 -58.5t37.5 -45t51 -35q61 -28 130 -28t110 8.5t71 27.5t52.5 42t37 59t24 70.5t13.5 84.5q8 83 8 198v859h369v-855q0 -373 -159.5 -566.5t-507.5 -193.5q-353 0 -514 200q-154 192 -154 560v855h369v-859z" />
<glyph unicode="V" horiz-adv-x="1331" d="M336 1578l334 -1075l322 1075h348l-492 -1578h-366l-490 1578h344z" />
<glyph unicode="W" horiz-adv-x="1996" d="M803 1565h393l207 -1117l217 1130h356l-338 -1578h-405l-234 1205l-233 -1205h-406l-338 1578h357l217 -1130z" />
<glyph unicode="X" horiz-adv-x="1368" d="M684 1067l306 511h383l-483 -781l483 -797h-391l-298 494l-298 -494h-391l483 797l-483 781h383z" />
<glyph unicode="Y" horiz-adv-x="1236" d="M616 905l310 673h374l-510 -1060v-518h-348v518l-504 1060h368z" />
<glyph unicode="Z" horiz-adv-x="1231" d="M1161 1578v-224l-695 -1058h697v-296h-1110v251l702 1073h-702v254h1108z" />
<glyph unicode="[" horiz-adv-x="1157" d="M229 1578h750v-262h-418v-1054h418v-262h-750v1578z" />
<glyph unicode="\" horiz-adv-x="1181" d="M487 1687l571 -1723l-320 -111l-572 1725z" />
<glyph unicode="]" horiz-adv-x="1157" d="M229 1578h750v-1578h-750v262h416v1054h-416v262z" />
<glyph unicode="^" horiz-adv-x="1229" d="M487 1182h254l258 -619h-274l-112 384l-112 -384h-272z" />
<glyph unicode="_" horiz-adv-x="1130" d="M1063 -98h-996v262h996v-262z" />
<glyph unicode="`" horiz-adv-x="862" d="M529 308l-358 542l312 145l203 -613z" />
<glyph unicode="a" horiz-adv-x="1249" d="M499 511q-55 -36 -55 -121t39 -129t109 -44q110 0 187 93v229q2 2 -38.5 5t-57.5 3q-129 0 -184 -36zM624 954q-201 0 -373 -81l-83 209q184 114 468 114q326 0 430 -208q61 -120 61 -314v-674h-271l-48 150q-51 -88 -123 -132t-184 -44q-193 0 -300 100.5t-107 287 t140 277t392 90.5q88 0 153 -12q0 116 -10 142q-21 57 -54.5 76t-90.5 19z" />
<glyph unicode="b" horiz-adv-x="1372" d="M823 -26q-251 0 -313 192l-76 -166h-245v1678l351 47v-665q120 136 316 136q139 0 238 -77q200 -154 200 -533q0 -468 -288 -580q-80 -32 -183 -32zM742 200q202 0 202 386q0 226 -42 308q-42 78 -129 78q-115 0 -233 -116v-560q88 -96 202 -96z" />
<glyph unicode="c" horiz-adv-x="1127" d="M144 318q-44 115 -44 253.5t31 237t85 168.5t126 120q143 99 322 99q133 0 220.5 -25.5t180.5 -74.5l-65 -225q-27 26 -111 57.5t-165 31.5q-149 0 -210.5 -86.5t-61.5 -287.5q0 -375 299 -375q111 0 235 80q13 8 13 9l65 -225q-61 -32 -106 -50q-123 -50 -268 -50 t-247 40t-178.5 114t-120.5 189z" />
<glyph unicode="d" horiz-adv-x="1374" d="M122 388q-15 87 -15 236t52 283.5t154 211.5t241 77q200 0 309 -150v632l351 48v-1726h-247l-76 166q-22 -75 -104 -128q-98 -64 -212 -64q-98 0 -179 31.5t-134.5 86t-89 132t-50.5 164.5zM457 586q0 -376 202 -376q142 0 204 86v560q-119 106 -235 106 q-154 0 -168 -261q-3 -44 -3 -115z" />
<glyph unicode="e" horiz-adv-x="1233" d="M867 676q3 284 -201 284q-68 0 -117 -40q-93 -77 -93 -244h411zM1027 304l66 -234q-186 -95 -389 -96q-390 0 -540 284q-71 137 -67 308t48 283t121 188q160 159 406 159q149 0 258 -66q223 -136 221 -464v-164h-694q4 -132 77 -212q73 -79 197 -78q171 1 296 92z" />
<glyph unicode="f" horiz-adv-x="868" d="M740 1436q-70 0 -103.5 -59.5t-33.5 -215.5h280v-145h-281v-1016h-350v1016h-190v145h190q0 265 100 399.5t308 134.5q114 0 229 -29v-255q-67 25 -149 25z" />
<glyph unicode="g" horiz-adv-x="1267" d="M372.5 -106.5q-16.5 -30.5 -16.5 -60t3.5 -48t17 -37.5t39.5 -29q58 -23 162 -23t163.5 8.5t94 22t54.5 36.5q31 37 31.5 93t-18.5 83q-39 56 -247 76l-140 14q-8 0 -44.5 -29t-59.5 -52.5t-39.5 -54zM550 605l122 10q54 4 100 65q45 62 43 124q0 164 -180 164 q-93 0 -140 -37.5t-47 -137t66 -163.5q16 -15 36 -25zM1040 968q64 -96 64 -151t-10 -101t-38.5 -98t-72.5 -92q-101 -87 -288 -105l-303 -29l18 -120l268 -20q280 -21 414 -114.5t134 -282.5q0 -414 -640 -414q-437 0 -496 230q-12 47 -12 125t54 156t153 128 q-156 15 -176 189q-6 84 5 114t29 55q39 56 143 90l81 22q-137 6 -197 105q-34 55 -34 136q0 191 126.5 298t339.5 107t306 -60q133 58 278 58h101v-226h-247z" />
<glyph unicode="h" horiz-adv-x="1390" d="M539 1728v-671q6 15 37.5 43.5t64.5 47.5q83 48 211 48q197 0 306 -119t109 -354v-723h-350v747q0 107 -48.5 161t-115 54t-105 -11.5t-58.5 -25.5t-51 -41v-884h-350v1668z" />
<glyph unicode="i" horiz-adv-x="729" d="M197 1607q0 83 55.5 138.5t137.5 55.5t139 -55.5t57 -138.5t-57 -138.5t-139 -55.5t-137.5 55.5t-55.5 138.5zM565 -3h-350v1160h350v-1160z" />
<glyph unicode="j" horiz-adv-x="730" d="M-9 -113q52 29 86 55.5t64 65.5t44.5 92t14.5 123v937h351v-957q0 -106 -36 -201t-98.5 -164.5t-143 -117t-171.5 -68.5zM185 1604.5q0 83.5 53.5 138.5t135.5 55t135.5 -55t53.5 -138.5t-53.5 -139t-135.5 -55.5t-135.5 55.5t-53.5 139z" />
<glyph unicode="k" horiz-adv-x="1369" d="M540 409v-409h-351v1678l351 49v-991l440 433h381l-512 -520l522 -649h-395l-344 496z" />
<glyph unicode="l" horiz-adv-x="688" d="M525 1726v-1726h-351v1678z" />
<glyph unicode="m" horiz-adv-x="1983" d="M676 950q-95 -44 -136 -119v-831h-351v1160h248l78 -178q41 109 115 159q82 55 200 55q112 0 189.5 -38.5t124.5 -135.5q61 88 142.5 131t212.5 43q179 0 270 -115t91 -326v-755h-351v782q0 178 -119 178q-47 0 -89 -22.5t-97 -75.5v-862h-351v792q0 137 -67 161 q-19 7 -48 7q-40 0 -62 -10z" />
<glyph unicode="n" horiz-adv-x="1363" d="M516 1011q90 185 305.5 185t313.5 -117.5t98 -357.5v-721h-351v747q0 117 -35.5 164.5t-111 50t-126 -29.5t-75.5 -76v-856h-351v1160h266z" />
<glyph unicode="o" d="M640 208q112 0 166 91t54 285t-54 285t-166 91t-166 -91t-54 -285t54 -285t166 -91zM639 1196q273 0 421 -161.5t148 -452.5q0 -289 -147 -448.5t-421 -159.5t-422 159.5t-148 448.5q0 291 148 452.5t421 161.5z" />
<glyph unicode="p" horiz-adv-x="1348" d="M784 -26q-166 0 -273 146v-526h-351v1566h267l66 -151q30 89 107 138q78 49 207 49t213.5 -43t139.5 -126q110 -166 110 -458.5t-133.5 -443.5t-352.5 -151zM916 501.5q2 47.5 2 104t-2 93.5t-7.5 81.5t-17.5 74.5t-31 57q-36 52 -117 52q-128 0 -232 -107v-533 q143 -116 236 -116q78 0 115 59t44.5 123t9.5 111.5z" />
<glyph unicode="q" horiz-adv-x="1360" d="M405 1166q82 30 180 30t174 -54q57 -36 102 -138l49 156h300v-1566h-351v527q-124 -146 -273 -146q-106 0 -195 35t-139 97q-149 182 -149 458q0 488 302 601zM461 731q-9 -60 -9 -130.5t2 -108t7.5 -84t17 -79t29.5 -61.5q37 -59 115 -59q118 0 236 116v506 q-43 69 -81 96q-47 33 -118 33q-64 0 -105.5 -30.5t-63 -84.5t-30.5 -114z" />
<glyph unicode="r" horiz-adv-x="882" d="M519 976q23 60 54 91q34 33 65 48q34 17 84 32t148 15v-299q-51 18 -114 18q-115 0 -227 -85v-796h-351v1160h301z" />
<glyph unicode="s" horiz-adv-x="1154" d="M451 496q-199 77 -258 141q-70 76 -70 227t123.5 241.5t344.5 90.5q117 0 235 -30.5t170 -52.5l24 -9l-66 -222q-73 28 -170 50.5t-165 24t-108 -10t-54.5 -26.5t-17 -54t16.5 -58t73 -40l298 -114q63 -23 107 -55q108 -78 108 -251q0 -236 -207 -322q-124 -51 -265 -51 q-272 0 -444 103l66 228q75 -34 181 -63q99 -26 175 -28q87 -2 122 18q46 26 46 106q-1 53 -108 95z" />
<glyph unicode="t" horiz-adv-x="942" d="M577 -16q-89 0 -155.5 25.5t-114.5 80.5t-72.5 146t-24.5 217v563h-210v144h219l10 433l330 84v-517h326v-144h-326v-598q0 -90 27.5 -137.5t93.5 -48.5q34 0 73 12.5t61 25.5q23 12 22 14l82 -211q-6 -4 -16.5 -10t-46 -21t-73 -27t-94 -21.5t-111.5 -9.5z" />
<glyph unicode="u" horiz-adv-x="1351" d="M546 423q-1 -99 34 -157q33 -54 116 -58q107 8 186 96v856h351v-1160h-247l-77 177q-43 -110 -92 -147q-71 -56 -189 -56q-218 0 -323 119t-105 356v711h346v-737z" />
<glyph unicode="v" horiz-adv-x="1180" d="M801 0h-424l-371 1160h368l215 -859l213 859h372z" />
<glyph unicode="w" horiz-adv-x="1625" d="M958 0l-150 652l-146 -652h-349l-289 1160h325l152 -757l158 757h307l157 -755l159 755h319l-290 -1160h-353z" />
<glyph unicode="x" horiz-adv-x="1145" d="M577 346l-187 -346h-387l396 584l-404 576h395l191 -327l186 327h388l-395 -576l389 -584h-382z" />
<glyph unicode="y" horiz-adv-x="1227" d="M506 43l-482 1117h358l276 -786l192 786h354l-396 -1192q-72 -222 -204 -328t-352 -108l-98 237q96 7 157 24.5t99 54.5t57 79.5t39 115.5z" />
<glyph unicode="z" horiz-adv-x="1053" d="M590 897l-476 1v264h852v-231l-481 -667h492v-264h-875v233z" />
<glyph unicode="{" horiz-adv-x="852" d="M583 982q0 -71 -12 -127.5t-29 -90.5t-43 -59.5t-48 -37.5t-50 -22q183 -69 183 -338q0 -114 5 -180t20 -98.5t32.5 -41t50.5 -8.5v-189q-48 0 -90 5t-87.5 19t-82 36t-71 58.5t-57.5 85t-36.5 117t-13.5 151.5q0 112 -11.5 174.5t-34.5 88t-63 25.5v189q40 0 63 26 t34 88.5t11 173.5q0 83 13.5 151.5t37 117t57.5 85t71 58.5t82.5 36t87.5 19t90 5v-189q-33 0 -50.5 -8.5t-32.5 -41t-20.5 -98.5t-5.5 -180z" />
<glyph unicode="|" horiz-adv-x="813" d="M252 -147v1814h308l2 -1814h-310z" />
<glyph unicode="}" horiz-adv-x="852" d="M269 982q0 77 -2.5 130.5t-9 90.5t-14 58t-21 32t-27 14t-35.5 3v189q48 0 90 -5t87.5 -19t82.5 -36t71 -58.5t57.5 -85t37 -117t13.5 -151.5q0 -164 24 -226t84 -62v-189q-60 0 -84.5 -61.5t-24.5 -226.5q0 -83 -13.5 -151.5t-36.5 -117t-57.5 -85t-71 -58.5t-82 -36 t-87.5 -19t-90 -5v189q22 0 35.5 3t27 14t21 32t13.5 58t8.5 90.5t2.5 130.5q0 269 183 338q-28 10 -50 22t-48 37.5t-43 59.5t-29 90.5t-12 127.5z" />
<glyph unicode="~" horiz-adv-x="1208" d="M829 310q-47 0 -95.5 15.5t-88.5 38.5l-76 44q-36 22 -68.5 37.5t-55.5 15.5q-31 0 -45.5 -28.5t-14.5 -96.5h-208q0 166 57.5 252t172.5 86q48 0 94 -14.5t81 -35.5l69 -43q33 -21 67.5 -35.5t64.5 -14.5q35 0 46.5 20.5t11.5 83.5h220q0 -148 -62.5 -236.5 t-169.5 -88.5z" />
<glyph unicode="&#xa1;" horiz-adv-x="792" d="M607 -1h-429l111 1066h210zM217 1347q0 83 53 138.5t135.5 55.5t136 -55.5t53.5 -138.5t-53.5 -138.5t-136 -55.5t-135.5 55.5t-53 138.5z" />
<glyph unicode="&#xa2;" horiz-adv-x="1097" d="M620 -147l1 1524h162l1 -1524h-164zM78 586q0 114 31 212.5t85 168.5t126 120t153.5 74.5t168.5 24.5q133 0 220.5 -25.5t180.5 -74.5l-65 -225q-27 26 -111 57.5t-165 31.5q-149 0 -210.5 -86.5t-61.5 -277.5q0 -364 299 -364q34 0 72 9t68.5 22t55.5 26.5t39 22.5t13 9 l65 -225q-61 -32 -105.5 -50t-124 -34t-171.5 -16q-118 0 -220 40t-178.5 114t-120.5 189t-44 257z" />
<glyph unicode="&#xa3;" horiz-adv-x="1203" d="M188 260l8 10q8 9 21 25.5t28.5 38.5t31 50t28 57.5t20.5 64.5t8 67l-127 -1v143h103q0 -2 -11.5 9t-28 32.5t-33 50t-28 68.5t-11.5 81q0 79 30.5 146t88 116t145.5 76.5t198 27.5q60 0 116.5 -7.5t99 -19.5t80 -26.5t63 -28.5t44 -26t26.5 -18l9 -7l-133 -218l-10 9 q-11 9 -34.5 22.5t-53.5 26.5t-74 22.5t-91 9.5q-48 0 -82.5 -10t-53 -24.5t-29.5 -36t-14 -40t-3 -41.5q0 -82 55 -159l25 -30h405v-148h-387q0 -64 -15.5 -119t-34.5 -87t-44.5 -57.5t-35.5 -32.5t-16 -10h591v-266h-871z" />
<glyph unicode="&#xa4;" horiz-adv-x="1396" d="M719 1249q-72 0 -135.5 -38t-102 -101.5t-38.5 -134.5q0 -107 78 -183t181 -76q71 0 134.5 38t101.5 101.5t38 135.5q0 107 -77.5 182.5t-179.5 75.5zM337 732q-70 107 -70 235q0 135 78 250l-202 202l129 130l202 -202q116 79 253 79q128 0 234 -70l193 193l129 -130 l-195 -195q64 -102 64 -223q0 -137 -79 -253l210 -210l-129 -130l-211 211q-115 -78 -250 -78q-122 0 -224 63l-197 -196l-129 130z" />
<glyph unicode="&#xa5;" horiz-adv-x="1277" d="M636 811l300 766h384l-388 -806h202v-120h-260l-62 -129h322v-120h-324v-402h-348v402h-324v120h322l-61 129h-261v120h204l-384 806h378z" />
<glyph unicode="&#xa6;" horiz-adv-x="753" d="M225 -147l1 746h308l1 -746h-310zM225 921l1 746h308l1 -746h-310z" />
<glyph unicode="&#xa7;" horiz-adv-x="1123" d="M959 1423l-92 -203q-53 42 -150.5 81t-170.5 39q-49 0 -84 -7t-53 -16.5t-28.5 -23.5t-13 -25t-2.5 -24q0 -11 0.5 -15t6.5 -14t18 -17.5t36.5 -19t60.5 -24.5l156 -56q91 -33 154.5 -65.5t102.5 -63t60.5 -68t29 -73.5t7.5 -85q0 -80 -47.5 -145t-136.5 -92 q52 -22 89.5 -54.5t58 -70.5t29.5 -76t9 -79q0 -60 -15.5 -108.5t-41 -83t-63 -60.5t-77.5 -41.5t-88 -25.5t-91 -13.5t-91 -3.5q-100 0 -219 39.5t-178 88.5l-29 25l95 215l8 -7q8 -7 24 -19l37 -25q21 -14 49 -28t58.5 -25.5t68 -18.5t74.5 -7q209 0 209 122q0 53 -33 80 t-114 53l-160 54q-99 34 -160.5 66.5t-95.5 73.5t-46 84t-12 107q0 31 9.5 64.5t30.5 68t59.5 62.5t89.5 42q-189 67 -189 267q0 44 13.5 85.5t45.5 82t80 71t122 49t166 18.5q63 0 130.5 -16.5t114 -36t92.5 -46t61.5 -37.5t25.5 -19zM547 648q189 0 189 100 q0 24 -7.5 41.5t-27 32.5t-58 22.5t-95.5 7.5q-49 0 -84 -6t-54 -15.5t-30 -24t-14 -27t-3 -29.5q0 -51 43 -76.5t141 -25.5z" />
<glyph unicode="&#xa8;" horiz-adv-x="1246" d="M768 194q0 83 55.5 138.5t137.5 55.5t139 -55.5t57 -138.5t-57 -138.5t-139 -55.5t-137.5 55.5t-55.5 138.5zM98 194q0 83 55.5 138.5t137.5 55.5t139 -55.5t57 -138.5t-57 -138.5t-139 -55.5t-137.5 55.5t-55.5 138.5z" />
<glyph unicode="&#xa9;" horiz-adv-x="2080" d="M1074 101q145 0 272.5 54.5t216 147t139.5 219t51 267.5q0 60 -11.5 123.5t-38 130t-65 128t-95.5 116t-127 94.5t-163 63.5t-198 23.5q-99 0 -195.5 -30.5t-180.5 -90t-148.5 -140.5t-102 -191t-37.5 -233q0 -141 50 -266.5t138 -217t216.5 -145t278.5 -53.5zM1060 1703 q156 0 293.5 -41t235.5 -105.5t177 -151.5t126.5 -172t75.5 -174q43 -135 41 -305q0 -51 -7 -106.5t-27 -122t-49.5 -131t-76.5 -132.5t-106.5 -126.5t-142.5 -112t-182 -91.5q-166 -64 -352 -65q-122 0 -239.5 30.5t-220 85.5t-190 137.5t-150 182t-97 223t-34.5 257.5 q0 136 36 260.5t100.5 224.5t152.5 182.5t190.5 137.5t217 85t228.5 30zM844 784q0 -85 16.5 -145.5t48.5 -95t74 -49.5t97 -15q106 0 222 57l74 37v-219l-28 -14q-140 -70 -256 -70q-109 0 -195 31t-139.5 81.5t-88 119t-48 138t-13.5 144.5q0 154 54.5 269.5t161 180 t252.5 64.5q70 0 150.5 -21.5t117.5 -44.5l24 -15v-210l-74 37q-32 16 -93.5 30.5t-128.5 14.5q-53 0 -94 -17.5t-66 -46t-40.5 -69t-21.5 -82.5t-6 -90z" />
<glyph unicode="&#xaa;" horiz-adv-x="1249" d="M516 1038q-44 -29 -44 -97t31.5 -103t87.5 -35q88 0 149 74v183q2 2 -30.5 4.5t-46.5 2.5q-103 0 -147 -29zM616 1392q-161 0 -298 -65l-67 168q148 91 375 91q261 0 344 -167q49 -96 49 -251v-539h-217l-39 120q-40 -70 -98 -105.5t-147 -35.5q-155 0 -240.5 80.5 t-85.5 229.5t112 221.5t314 72.5q70 0 122 -9q0 92 -8 113q-17 46 -43.5 61t-72.5 15z" />
<glyph unicode="&#xab;" horiz-adv-x="1846" d="M904 862l-472 -283l472 -294v-336l-806 504v243l806 504v-338zM1708 862l-472 -283l472 -294v-336l-806 504v243l806 504v-338z" />
<glyph unicode="&#xac;" horiz-adv-x="1130" d="M867 584h-804v262h996v-262v-360h-192v360z" />
<glyph unicode="&#xad;" horiz-adv-x="1120" d="M950 574h-794v262h794v-262z" />
<glyph unicode="&#xae;" horiz-adv-x="1366" d="M665 1274q72 0 107 20.5t35 75.5q0 47 -37.5 63.5t-153.5 16.5v-176h49zM961 927l-128 -63l-183 298h-39v-272h-132v669h136q72 0 127 -8.5t101.5 -28t71.5 -56.5t25 -91q0 -78 -36 -120t-129 -68zM15 1220q0 175 86.5 323.5t241.5 236.5t345 88q186 0 341.5 -86.5 t244.5 -234.5t89 -327t-89 -327t-244.5 -234.5t-341.5 -86.5q-188 0 -344 88t-242.5 235.5t-86.5 324.5zM687 1730q-228 0 -377.5 -148t-149.5 -364.5t149.5 -363t377.5 -146.5q229 0 379 148t150 362q0 218 -150.5 365t-378.5 147z" />
<glyph unicode="&#xaf;" horiz-adv-x="659" d="M341 122h-682v127h682v-127z" />
<glyph unicode="&#xb0;" horiz-adv-x="820" d="M216 1019.5q0 -75.5 53.5 -126t127 -50.5t126.5 50.5t53 126t-53 126t-126.5 50.5t-127 -50.5t-53.5 -126zM31 1019.5q0 95.5 51.5 174.5t135 122t179.5 43t179 -43t134 -121.5t51 -174.5t-51 -175t-134 -122t-179 -43t-179.5 43t-135 122t-51.5 174.5z" />
<glyph unicode="&#xb1;" horiz-adv-x="1134" d="M1023 770h-279v-353h-288v353h-277v269h277v350h288v-350h279v-269zM998 -20h-794v262h794v-262z" />
<glyph unicode="&#xb2;" horiz-adv-x="1174" d="M629 1251q0 58 -29 86.5t-94 28.5q-35 0 -80.5 -11t-89.5 -29l-64 -26q-20 -9 -36 -17l-1 -1l-73 191l2 1q20 10 45 21t79.5 32t117 34.5t118.5 13.5q55 0 106 -9t100.5 -30t85.5 -52.5t58 -81.5t22 -113q0 -94 -46 -171.5t-162 -178.5l-115 -103h298v-214h-687v174 l260 220q4 2 25 19.5t28 24.5l27 23q20 17 28 27l23 26q16 16 23 28t15.5 28t12 30t3.5 29z" />
<glyph unicode="&#xb3;" horiz-adv-x="1179" d="M622 1340q0 45 -36.5 67t-95.5 22q-21 0 -44 -3t-44.5 -8t-43 -11t-38.5 -12t-30 -11t-21 -8l-7 -3l-91 183l14 8q16 8 44 20.5t62.5 24.5t82.5 21t96 9q73 0 132 -10t109 -32t84 -57t54 -86.5t21 -118.5q2 -75 -42 -138.5t-119 -81.5q82 -20 136 -91t54 -156t-31 -149.5 t-87.5 -104t-131 -59t-164.5 -19.5q-52 0 -101.5 5.5t-84 13.5t-61 16t-39.5 14l-14 6l67 201h1q17 -7 41 -15.5t81 -21t102 -12.5q80 0 121.5 28t41.5 95q0 48 -35 83.5t-88 52t-114 14.5v197q44 0 81.5 7t69 21t50 40t18.5 59z" />
<glyph unicode="&#xb4;" horiz-adv-x="1097" d="M448 308l-157 74l203 613l312 -145z" />
<glyph unicode="&#xb5;" horiz-adv-x="1351" d="M620 -15q-28 0 -60.5 7.5t-51 14.5t-19.5 9v-504l-350 60v1589h350v-884l6 -3q6 -3 18 -8.5t27.5 -12t34.5 -13t37.5 -11.5t39 -8t36.5 -2q124 6 186 77v865h352v-1160h-248l-78 167q-9 -32 -29.5 -62.5t-53.5 -58.5t-84 -45t-113 -17z" />
<glyph unicode="&#xb6;" horiz-adv-x="1364" d="M1288 1578v-1578h-256v1428h-135v-1428h-259v711q-93 0 -172.5 12.5t-152 44.5t-123.5 81.5t-81 127.5t-30 178q0 75 19 136.5t50.5 104.5t78 76t97.5 52.5t113.5 31.5t120.5 16.5t124 4.5h105z" />
<glyph unicode="&#xb7;" horiz-adv-x="621" d="M100 705q0 87 61.5 149t149 62t149.5 -62t62 -149t-62 -149t-149.5 -62t-149 62t-61.5 149z" />
<glyph unicode="&#xb8;" horiz-adv-x="659" d="M78 -611v137l8 -4q9 -4 26 -10.5t37 -13t47.5 -11t53.5 -4.5q35 0 57.5 3.5t42.5 15t29 35.5t9 62q0 162 -260 162l20 262h120l-20 -174q27 0 59 -5t70.5 -15t73.5 -29t65 -44.5t47.5 -64.5t18.5 -86q0 -132 -74 -201t-216 -69q-113 0 -207 50z" />
<glyph unicode="&#xb9;" horiz-adv-x="912" d="M344 702v714l-125 -54l-75 190l214 87l264 -2v-935h-278z" />
<glyph unicode="&#xba;" d="M611 859q90 0 133 73t43 228t-43 228t-133 73t-133 -73t-43 -228t43 -228t133 -73zM610.5 1650q218.5 0 336.5 -129.5t118 -361.5t-117.5 -359.5t-336.5 -127.5t-337.5 127.5t-118.5 359.5t118.5 361.5t337 129.5z" />
<glyph unicode="&#xbb;" horiz-adv-x="1888" d="M974 862v338l806 -504v-243l-806 -504v336l481 294zM170 862v338l806 -504v-243l-806 -504v336l481 294z" />
<glyph unicode="&#xbc;" horiz-adv-x="1975" d="M447 -29l706 1570l226 -83l-713 -1565zM1526 1023l207 -53v-667h139v-207h-139v-221l-244 1v220h-449l-33 161zM1313 301h176v296zM258 411v714l-125 -54l-75 190l286 112l178 -40v-922h-264z" />
<glyph unicode="&#xbd;" horiz-adv-x="2090" d="M447 -29l706 1570l226 -83l-713 -1565zM258 411v714l-125 -54l-75 190l286 112l178 -40v-922h-264zM1728 725q0 58 -29.5 86.5t-94.5 28.5q-48 0 -115.5 -21t-111.5 -42l-44 -21l-72 191l7 3q7 4 19.5 10t30.5 14l39 16l46 16q24 9 51.5 16.5t54.5 13.5t56.5 9.5 t56.5 3.5q71 0 133.5 -15t118 -46.5t88 -89.5t32.5 -135q0 -94 -46 -171t-161 -179l-115 -103h298v-214h-687v174l260 219l25 21q20 16 28 24l26 24q19 16 28 26l24 26q15 16 22 28l16 28q9 15 12.5 30t3.5 29z" />
<glyph unicode="&#xbe;" horiz-adv-x="2126" d="M1690 1023l207 -53v-667h139v-207h-139v-221l-224 1v220h-469l-33 161zM1467 301h206v306zM611 -29l705 1570l227 -83l-713 -1565zM533 1213q0 45 -36.5 67t-95.5 22q-44 0 -101 -14t-92 -28l-35 -14l-91 183l14 8q15 8 43 20.5t63 24.5t83 20.5t96 8.5q91 0 161.5 -16 t124.5 -50.5t83.5 -94t31.5 -142.5q0 -75 -44 -138.5t-118 -82.5q81 -20 135.5 -90.5t54.5 -155.5t-31.5 -149.5t-87.5 -104t-130.5 -59t-164.5 -19.5q-38 0 -74.5 3t-65 7.5t-54.5 10.5t-45 12l-33 10q-14 5 -21 8t-6 3l66 202q13 -6 36 -14t82.5 -22t106.5 -14 q81 0 122 28t41 95q0 48 -34.5 83.5t-88 52.5t-114.5 15v197q59 0 106.5 11.5t80 41t32.5 74.5z" />
<glyph unicode="&#xbf;" horiz-adv-x="1159" d="M444 318q0 -40 13.5 -68t34 -44t55.5 -24.5t67 -11t80 -2.5q54 0 138 18t141.5 35.5t57.5 18.5l81 -253q-55 -28 -94 -41q-153 -51 -354 -51q-118 0 -215.5 21t-176 65.5t-122.5 121.5t-44 182q0 26 2 50t12.5 65.5t29 77.5t54.5 80.5t84.5 81.5t125 73t170.5 63v254h321 v-409q-28 -11 -72 -25l-78 -26q-34 -11 -76.5 -27.5t-74 -31.5t-63 -36t-52 -43.5t-33 -51.5t-12.5 -62zM917 1325q0 -83 -53.5 -138.5t-135.5 -55.5t-135.5 55.5t-53.5 138.5t53.5 138.5t135.5 55.5t135.5 -55.5t53.5 -138.5z" />
<glyph unicode="&#xc0;" horiz-adv-x="1568" d="M787 1137l-202 -617h392zM578 1578h406l520 -1578h-369l-111 350h-486l-111 -350h-369zM750 1727l-358 542l312 145l203 -613z" />
<glyph unicode="&#xc1;" horiz-adv-x="1568" d="M787 1137l-202 -617h392zM578 1578h406l520 -1578h-369l-111 350h-486l-111 -350h-369zM750 1727l-157 74l203 613l312 -145z" />
<glyph unicode="&#xc2;" horiz-adv-x="1568" d="M787 1137l-202 -617h392zM578 1578h406l520 -1578h-369l-111 350h-486l-111 -350h-369zM663 2346h254l258 -619h-274l-112 384l-112 -384h-272z" />
<glyph unicode="&#xc3;" horiz-adv-x="1568" d="M787 1137l-202 -617h392zM578 1578h406l520 -1578h-369l-111 350h-486l-111 -350h-369zM1000 1727q-47 0 -95.5 15.5t-88.5 38.5l-76 44q-36 22 -68.5 37.5t-55.5 15.5q-31 0 -45.5 -28.5t-14.5 -96.5h-208q0 166 57.5 252t172.5 86q48 0 94 -14.5t81 -35.5l69 -43 q33 -21 67.5 -35.5t64.5 -14.5q35 0 46.5 20.5t11.5 83.5h220q0 -148 -62.5 -236.5t-169.5 -88.5z" />
<glyph unicode="&#xc4;" horiz-adv-x="1568" d="M787 1137l-202 -617h392zM578 1578h406l520 -1578h-369l-111 350h-486l-111 -350h-369zM935 1933q0 83 55.5 138.5t137.5 55.5t139 -55.5t57 -138.5t-57 -138.5t-139 -55.5t-137.5 55.5t-55.5 138.5zM265 1933q0 83 55.5 138.5t137.5 55.5t139 -55.5t57 -138.5 t-57 -138.5t-139 -55.5t-137.5 55.5t-55.5 138.5z" />
<glyph unicode="&#xc5;" horiz-adv-x="1568" d="M416 1851.5q0 95.5 51.5 174.5t135 122t179.5 43t179 -43t134 -121.5t51 -174.5t-51 -175q-43 -66 -108 -107l517 -1570h-369l-111 350h-486l-111 -350h-369l517 1570q-65 41 -107 107q-52 79 -52 174.5zM601 1851.5q0 -75.5 53.5 -126t127 -50.5t126.5 50.5t53 126 t-53 126t-126.5 50.5t-127 -50.5t-53.5 -126zM787 1137l-202 -617h392z" />
<glyph unicode="&#xc6;" horiz-adv-x="1917" d="M1859 1577v-203h-669v-435h579v-197h-579v-519h679v-223h-1040v350h-341l-122 -350h-359l620 1577h1232zM829 520v823l-294 -823h294z" />
<glyph unicode="&#xc7;" horiz-adv-x="1271" d="M639 -640v137l8 -4q9 -4 26 -10.5t37 -13t47.5 -11t53.5 -4.5q35 0 57.5 3.5t42.5 15t29 35.5t9 62q0 162 -260 162l18 241q-280 19 -447 211q-184 214 -184 607.5t181 602t512 208.5q220 0 399 -74q39 -17 57 -29l18 -12l-100 -260l-18 13l-23 15q-126 81 -306.5 81 t-266.5 -132t-86 -422q0 -543 360 -543q181 0 340 109l100 -260q-85 -71 -301 -104q-57 -9 -115 -12l-18 -152q27 0 59 -5t70.5 -15t73.5 -29t65 -44.5t47.5 -64.5t18.5 -86q0 -132 -74 -201t-216 -69q-113 0 -207 50z" />
<glyph unicode="&#xc8;" horiz-adv-x="1368" d="M1269 0h-1080v1578h1070v-269h-702v-380h612v-226h-612v-437h712v-266zM672 1727l-358 542l312 145l203 -613z" />
<glyph unicode="&#xc9;" horiz-adv-x="1368" d="M1269 0h-1080v1578h1070v-269h-702v-380h612v-226h-612v-437h712v-266zM672 1727l-157 74l203 613l312 -145z" />
<glyph unicode="&#xca;" horiz-adv-x="1368" d="M1269 0h-1080v1578h1070v-269h-702v-380h612v-226h-612v-437h712v-266zM605 2346h254l258 -619h-274l-112 384l-112 -384h-272z" />
<glyph unicode="&#xcb;" horiz-adv-x="1368" d="M1269 0h-1080v1578h1070v-269h-702v-380h612v-226h-612v-437h712v-266zM817 1933q0 83 55.5 138.5t137.5 55.5t139 -55.5t57 -138.5t-57 -138.5t-139 -55.5t-137.5 55.5t-55.5 138.5zM147 1933q0 83 55.5 138.5t137.5 55.5t139 -55.5t57 -138.5t-57 -138.5t-139 -55.5 t-137.5 55.5t-55.5 138.5z" />
<glyph unicode="&#xcc;" horiz-adv-x="864" d="M77 170h170v1237h-170v171h710v-171h-171v-1237h171v-170h-710v170zM447 1727l-358 542l312 145l203 -613z" />
<glyph unicode="&#xcd;" horiz-adv-x="864" d="M77 170h170v1237h-170v171h710v-171h-171v-1237h171v-170h-710v170zM447 1727l-157 74l203 613l312 -145z" />
<glyph unicode="&#xce;" horiz-adv-x="864" d="M77 170h170v1237h-170v171h710v-171h-171v-1237h171v-170h-710v170zM310 2346h254l258 -619h-274l-112 384l-112 -384h-272z" />
<glyph unicode="&#xcf;" horiz-adv-x="864" d="M77 170h170v1237h-170v171h710v-171h-171v-1237h171v-170h-710v170zM592 1933q0 83 55.5 138.5t137.5 55.5t139 -55.5t57 -138.5t-57 -138.5t-139 -55.5t-137.5 55.5t-55.5 138.5zM-78 1933q0 83 55.5 138.5t137.5 55.5t139 -55.5t57 -138.5t-57 -138.5t-139 -55.5 t-137.5 55.5t-55.5 138.5z" />
<glyph unicode="&#xd0;" horiz-adv-x="1477" d="M1447 782q0 -379 -197.5 -580.5t-610.5 -201.5h-500v684h-159v232h159v662h500q808 0 808 -796zM1077 784q0 78 -4 135.5t-16.5 117t-34 101t-57 79.5t-85.5 60.5t-120 35.5t-160 13h-92v-410h263v-232h-263v-430h92q88 0 157 12.5t119 34t86 58t58 77.5t35 98.5 t17.5 115.5t4.5 134z" />
<glyph unicode="&#xd1;" horiz-adv-x="1643" d="M1481 0h-381l-622 1074v-1074h-329v1578h394l611 -1059v1059h327v-1578zM1045 1727q-47 0 -95 15q-50 16 -89 39l-76 44q-36 22 -68.5 37.5t-55.5 15.5q-31 0 -45.5 -28.5t-14.5 -96.5h-208q0 166 57.5 252t172.5 86q48 0 94 -15q49 -15 81 -35l69 -43q35 -22 67 -36 q35 -14 65 -14q35 0 46.5 20.5t11.5 83.5h220q0 -148 -62.5 -236.5t-169.5 -88.5z" />
<glyph unicode="&#xd2;" horiz-adv-x="1627" d="M813 1605q357 0 533.5 -214.5t176.5 -601.5q0 -190 -42.5 -339.5t-128.5 -256.5t-222 -164t-317 -57t-317 57t-222 164t-128.5 256.5t-42.5 339.5q0 387 176.5 601.5t533.5 214.5zM813 1339q-79 0 -139 -28.5t-98 -76.5t-61.5 -119.5t-33 -150t-9.5 -175.5t9.5 -175.5 t33 -150t61.5 -120t98 -77t139 -28.5t139 28.5t98 77t61.5 120t33 150t9.5 175.5t-9.5 175.5t-33 150t-61.5 119.5t-98 76.5t-139 28.5zM791 1727l-358 542l312 145l203 -613z" />
<glyph unicode="&#xd3;" horiz-adv-x="1627" d="M813 1605q357 0 533.5 -214.5t176.5 -601.5q0 -190 -42.5 -339.5t-128.5 -256.5t-222 -164t-317 -57t-317 57t-222 164t-128.5 256.5t-42.5 339.5q0 387 176.5 601.5t533.5 214.5zM813 1339q-79 0 -139 -28.5t-98 -76.5t-61.5 -119.5t-33 -150t-9.5 -175.5t9.5 -175.5 t33 -150t61.5 -120t98 -77t139 -28.5t139 28.5t98 77t61.5 120t33 150t9.5 175.5t-9.5 175.5t-33 150t-61.5 119.5t-98 76.5t-139 28.5zM791 1727l-157 74l203 613l312 -145z" />
<glyph unicode="&#xd4;" horiz-adv-x="1627" d="M813 1605q357 0 533.5 -214.5t176.5 -601.5q0 -190 -42.5 -339.5t-128.5 -256.5t-222 -164t-317 -57t-317 57t-222 164t-128.5 256.5t-42.5 339.5q0 387 176.5 601.5t533.5 214.5zM813 1339q-79 0 -139 -28.5t-98 -76.5t-61.5 -119.5t-33 -150t-9.5 -175.5t9.5 -175.5 t33 -150t61.5 -120t98 -77t139 -28.5t139 28.5t98 77t61.5 120t33 150t9.5 175.5t-9.5 175.5t-33 150t-61.5 119.5t-98 76.5t-139 28.5zM694 2346h254l258 -619h-274l-112 384l-112 -384h-272z" />
<glyph unicode="&#xd5;" horiz-adv-x="1627" d="M813 1605q357 0 533.5 -214.5t176.5 -601.5q0 -190 -42.5 -339.5t-128.5 -256.5t-222 -164t-317 -57t-317 57t-222 164t-128.5 256.5t-42.5 339.5q0 387 176.5 601.5t533.5 214.5zM813 1339q-79 0 -139 -28.5t-98 -76.5t-61.5 -119.5t-33 -150t-9.5 -175.5t9.5 -175.5 t33 -150t61.5 -120t98 -77t139 -28.5t139 28.5t98 77t61.5 120t33 150t9.5 175.5t-9.5 175.5t-33 150t-61.5 119.5t-98 76.5t-139 28.5zM1041 1727q-47 0 -95.5 15.5t-88.5 38.5l-76 44q-36 22 -68.5 37.5t-55.5 15.5q-31 0 -45.5 -28.5t-14.5 -96.5h-208q0 166 57.5 252 t172.5 86q48 0 94 -14.5t81 -35.5l69 -43q33 -21 67.5 -35.5t64.5 -14.5q35 0 46.5 20.5t11.5 83.5h220q0 -148 -62.5 -236.5t-169.5 -88.5z" />
<glyph unicode="&#xd6;" horiz-adv-x="1627" d="M813 1605q357 0 533.5 -214.5t176.5 -601.5q0 -190 -42.5 -339.5t-128.5 -256.5t-222 -164t-317 -57t-317 57t-222 164t-128.5 256.5t-42.5 339.5q0 387 176.5 601.5t533.5 214.5zM813 1339q-79 0 -139 -28.5t-98 -76.5t-61.5 -119.5t-33 -150t-9.5 -175.5t9.5 -175.5 t33 -150t61.5 -120t98 -77t139 -28.5t139 28.5t98 77t61.5 120t33 150t9.5 175.5t-9.5 175.5t-33 150t-61.5 119.5t-98 76.5t-139 28.5zM956 1933q0 83 55.5 138.5t137.5 55.5t139 -55.5t57 -138.5t-57 -138.5t-139 -55.5t-137.5 55.5t-55.5 138.5zM286 1933 q0 83 55.5 138.5t137.5 55.5t139 -55.5t57 -138.5t-57 -138.5t-139 -55.5t-137.5 55.5t-55.5 138.5z" />
<glyph unicode="&#xd7;" horiz-adv-x="1318" d="M208 813l182 199l290 -274l290 274l182 -199l-276 -260l276 -261l-182 -199l-290 274l-290 -274l-182 199l276 261z" />
<glyph unicode="&#xd8;" horiz-adv-x="1565" d="M791 1339q-79 0 -139 -28.5t-98 -76.5t-61.5 -119.5t-33 -150t-9.5 -175.5t9.5 -175.5t33 -150t61.5 -119.5q6 -8 12 -15l393 966q-14 8 -29 15q-60 29 -139 29zM1063 1180l-374 -928q46 -14 102 -14q79 0 139 28.5t98 77t61.5 120t33 150t9.5 175.5t-9.5 175.5 t-32.5 149.5q-12 36 -27 66zM449 40q-119 56 -197 153q-86 107 -128.5 256.5t-42.5 339.5q0 387 176.5 601.5t533.5 214.5q156 0 277 -41l71 175l131 -45l-76 -189q74 -46 130 -115q177 -214 177 -601q0 -190 -42.5 -339.5t-128.5 -256.5t-222 -164t-317 -57q-112 0 -207 22 l-65 -162l-136 45z" />
<glyph unicode="&#xd9;" horiz-adv-x="1615" d="M509 719q3 -183 14 -235.5t22 -88t26.5 -58.5t37.5 -45t51 -35q61 -28 130 -28t110 8.5t71 27.5t52.5 42t37 59t24 70.5t13.5 84.5q8 83 8 198v859h369v-855q0 -373 -159.5 -566.5t-507.5 -193.5q-353 0 -514 200q-154 192 -154 560v855h369v-859zM806 1727l-358 542 l312 145l203 -613z" />
<glyph unicode="&#xda;" horiz-adv-x="1615" d="M509 719q3 -183 14 -235.5t22 -88t26.5 -58.5t37.5 -45t51 -35q61 -28 130 -28t110 8.5t71 27.5t52.5 42t37 59t24 70.5t13.5 84.5q8 83 8 198v859h369v-855q0 -373 -159.5 -566.5t-507.5 -193.5q-353 0 -514 200q-154 192 -154 560v855h369v-859zM806 1727l-157 74 l203 613l312 -145z" />
<glyph unicode="&#xdb;" horiz-adv-x="1615" d="M509 719q3 -183 14 -235.5t22 -88t26.5 -58.5t37.5 -45t51 -35q61 -28 130 -28t110 8.5t71 27.5t52.5 42t37 59t24 70.5t13.5 84.5q8 83 8 198v859h369v-855q0 -373 -159.5 -566.5t-507.5 -193.5q-353 0 -514 200q-154 192 -154 560v855h369v-859zM679 2346h254l258 -619 h-274l-112 384l-112 -384h-272z" />
<glyph unicode="&#xdc;" horiz-adv-x="1615" d="M509 719q3 -183 14 -235.5t22 -88t26.5 -58.5t37.5 -45t51 -35q61 -28 130 -28t110 8.5t71 27.5t52.5 42t37 59t24 70.5t13.5 84.5q8 83 8 198v859h369v-855q0 -373 -159.5 -566.5t-507.5 -193.5q-353 0 -514 200q-154 192 -154 560v855h369v-859zM950 1933 q0 83 55.5 138.5t137.5 55.5t139 -55.5t57 -138.5t-57 -138.5t-139 -55.5t-137.5 55.5t-55.5 138.5zM280 1933q0 83 55.5 138.5t137.5 55.5t139 -55.5t57 -138.5t-57 -138.5t-139 -55.5t-137.5 55.5t-55.5 138.5z" />
<glyph unicode="&#xdd;" horiz-adv-x="1236" d="M616 905l310 673h374l-510 -1060v-518h-348v518l-504 1060h368zM639 1727l-157 74l203 613l312 -145z" />
<glyph unicode="&#xde;" horiz-adv-x="1289" d="M724 165q-181 0 -273 126v-510h-351v1797h332l1 -377q45 77 127.5 117.5t175.5 40.5q119 0 211 -45.5t149 -127.5t86 -193t29 -247q0 -279 -134 -430t-353 -151zM858 770q0 353 -202 353q-58 0 -101 -13t-62 -26.5t-42 -37.5v-551q98 -96 236 -96q38 0 67.5 15t47.5 44 t29.5 61.5t17 79t7.5 84t2 87.5z" />
<glyph unicode="&#xdf;" horiz-adv-x="1564" d="M660 689l-2 218h57q147 0 226.5 52t79.5 176q0 47 -9 79t-34.5 61.5t-78.5 44t-135 14.5q-148 0 -201 -80t-53 -274v-980h-371v980q0 292 148 445.5t477 153.5q103 0 188.5 -15t144.5 -40t104 -60.5t71.5 -72.5t43 -80.5t22.5 -79.5t6 -74q0 -63 -18.5 -117t-57 -100.5 t-104.5 -78t-155 -42.5q494 -50 494 -464v-3q0 -111 -48 -203.5t-130.5 -155.5t-194.5 -106.5t-237.5 -63.5t-262.5 -20l-1 281q119 9 207 26t145.5 40.5t92.5 57t49 71t14 85.5q0 325 -477 325z" />
<glyph unicode="&#xe0;" horiz-adv-x="1249" d="M499 511q-55 -36 -55 -121t39 -129t109 -44q110 0 187 93v229q2 2 -38.5 5t-57.5 3q-129 0 -184 -36zM624 954q-201 0 -373 -81l-83 209q184 114 468 114q326 0 430 -208q61 -120 61 -314v-674h-271l-48 150q-51 -88 -123 -132t-184 -44q-193 0 -300 100.5t-107 287 t140 277t392 90.5q88 0 153 -12q0 116 -10 142q-21 57 -54.5 76t-90.5 19zM610 1308l-358 542l312 145l203 -613z" />
<glyph unicode="&#xe1;" horiz-adv-x="1249" d="M499 511q-55 -36 -55 -121t39 -129t109 -44q110 0 187 93v229q2 2 -38.5 5t-57.5 3q-129 0 -184 -36zM624 954q-201 0 -373 -81l-83 209q184 114 468 114q326 0 430 -208q61 -120 61 -314v-674h-271l-48 150q-51 -88 -123 -132t-184 -44q-193 0 -300 100.5t-107 287 t140 277t392 90.5q88 0 153 -12q0 116 -10 142q-21 57 -54.5 76t-90.5 19zM610 1308l-157 74l203 613l312 -145z" />
<glyph unicode="&#xe2;" horiz-adv-x="1249" d="M499 511q-55 -36 -55 -121t39 -129t109 -44q110 0 187 93v229q2 2 -38.5 5t-57.5 3q-129 0 -184 -36zM624 954q-201 0 -373 -81l-83 209q184 114 468 114q326 0 430 -208q61 -120 61 -314v-674h-271l-48 150q-51 -88 -123 -132t-184 -44q-193 0 -300 100.5t-107 287 t140 277t392 90.5q88 0 153 -12q0 116 -10 142q-21 57 -54.5 76t-90.5 19zM513 1927h254l258 -619h-274l-112 384l-112 -384h-272z" />
<glyph unicode="&#xe3;" horiz-adv-x="1249" d="M499 511q-55 -36 -55 -121t39 -129t109 -44q110 0 187 93v229q2 2 -38.5 5t-57.5 3q-129 0 -184 -36zM624 954q-201 0 -373 -81l-83 209q184 114 468 114q326 0 430 -208q61 -120 61 -314v-674h-271l-48 150q-51 -88 -123 -132t-184 -44q-193 0 -300 100.5t-107 287 t140 277t392 90.5q88 0 153 -12q0 116 -10 142q-21 57 -54.5 76t-90.5 19zM860 1308q-47 0 -95.5 15.5t-88.5 38.5l-76 44q-36 22 -68.5 37.5t-55.5 15.5q-31 0 -45.5 -28.5t-14.5 -96.5h-208q0 166 57.5 252t172.5 86q48 0 94 -14.5t81 -35.5l69 -43q33 -21 67.5 -35.5 t64.5 -14.5q35 0 46.5 20.5t11.5 83.5h220q0 -148 -62.5 -236.5t-169.5 -88.5z" />
<glyph unicode="&#xe4;" horiz-adv-x="1249" d="M499 511q-55 -36 -55 -121t39 -129t109 -44q110 0 187 93v229q2 2 -38.5 5t-57.5 3q-129 0 -184 -36zM624 954q-201 0 -373 -81l-83 209q184 114 468 114q326 0 430 -208q61 -120 61 -314v-674h-271l-48 150q-51 -88 -123 -132t-184 -44q-193 0 -300 100.5t-107 287 t140 277t392 90.5q88 0 153 -12q0 116 -10 142q-21 57 -54.5 76t-90.5 19zM785 1514q0 83 55.5 138.5t137.5 55.5t139 -55.5t57 -138.5t-57 -138.5t-139 -55.5t-137.5 55.5t-55.5 138.5zM115 1514q0 83 55.5 138.5t137.5 55.5t139 -55.5t57 -138.5t-57 -138.5t-139 -55.5 t-137.5 55.5t-55.5 138.5z" />
<glyph unicode="&#xe5;" horiz-adv-x="1249" d="M499 511q-55 -36 -55 -121t39 -129t109 -44q110 0 187 93v229q2 2 -38.5 5t-57.5 3q-129 0 -184 -36zM624 954q-201 0 -373 -81l-83 209q184 114 468 114q326 0 430 -208q61 -120 61 -314v-674h-271l-48 150q-51 -88 -123 -132t-184 -44q-193 0 -300 100.5t-107 287 t140 277t392 90.5q88 0 153 -12q0 116 -10 142q-21 57 -54.5 76t-90.5 19zM470 1647.5q0 -75.5 53.5 -126t127 -50.5t126.5 50.5t53 126t-53 126t-126.5 50.5t-127 -50.5t-53.5 -126zM285 1647.5q0 95.5 51.5 174.5t135 122t179.5 43t179 -43t134 -121.5t51 -174.5t-51 -175 t-134 -122t-179 -43t-179.5 43t-135 122t-51.5 174.5z" />
<glyph unicode="&#xe6;" horiz-adv-x="1840" d="M400 385q0 -79 42.5 -123.5t113.5 -44.5q56 0 104.5 25t96.5 68v229q-62 8 -110 8q-130 0 -188.5 -36.5t-58.5 -125.5zM1635 314l66 -234q-186 -95 -408 -96q-151 -1 -243.5 50.5t-151.5 165.5q-36 -61 -86.5 -105t-108 -68t-114 -34.5t-118.5 -10.5q-192 0 -295.5 100 t-103.5 291q0 85 29 148.5t77 102.5t119 63t144 33t163 9q89 0 153 -12q0 32 -1 52.5t-4.5 46t-10 41.5t-18 32.5t-28 25.5t-41 15t-56.5 6q-48 0 -108 -8.5t-106.5 -19.5t-95.5 -25l-65 -19l-26 -9l-48 218q80 51 210 82t251 31q250 0 341 -148q51 76 141 112t198 36 q222 0 345.5 -143t123.5 -377v-164h-674v-3q4 -122 72.5 -200t191.5 -77q161 1 286 92zM1475 676q1 125 -45 199.5t-146 74.5q-48 0 -85.5 -20.5t-61 -55.5t-36.5 -78.5t-16 -93.5v-26h390z" />
<glyph unicode="&#xe7;" horiz-adv-x="1127" d="M511 -625v137l8 -4q9 -4 26 -10.5t37 -13t47.5 -11t53.5 -4.5q35 0 57.5 3.5t42.5 15t29 35.5t9 62q0 162 -260 162l18 235q-76 9 -136 33q-102 40 -178.5 114t-120.5 189t-44 253.5t31 237t85 168.5t126 120q143 99 322 99q133 0 220.5 -25.5t180.5 -74.5l-65 -225 q-27 26 -111 57.5t-165 31.5q-149 0 -210.5 -86.5t-61.5 -287.5q0 -375 299 -375q111 0 235 80q13 8 13 9l65 -225q-60 -31 -106 -50q-121 -49 -261 -50l-16 -140q27 0 59 -5t70.5 -15t73.5 -29t65 -44.5t47.5 -64.5t18.5 -86q0 -132 -74 -201t-216 -69q-113 0 -207 50z" />
<glyph unicode="&#xe8;" horiz-adv-x="1233" d="M867 676q3 284 -201 284q-68 0 -117 -40q-93 -77 -93 -244h411zM1027 304l66 -234q-186 -95 -389 -96q-390 0 -540 284q-71 137 -67 308t48 283t121 188q160 159 406 159q149 0 258 -66q223 -136 221 -464v-164h-694q4 -132 77 -212q73 -79 197 -78q171 1 296 92z M653 1308l-358 542l312 145l203 -613z" />
<glyph unicode="&#xe9;" horiz-adv-x="1233" d="M867 676q3 284 -201 284q-68 0 -117 -40q-93 -77 -93 -244h411zM1027 304l66 -234q-186 -95 -389 -96q-390 0 -540 284q-71 137 -67 308t48 283t121 188q160 159 406 159q149 0 258 -66q223 -136 221 -464v-164h-694q4 -132 77 -212q73 -79 197 -78q171 1 296 92z M653 1308l-157 74l203 613l312 -145z" />
<glyph unicode="&#xea;" horiz-adv-x="1233" d="M867 676q3 284 -201 284q-68 0 -117 -40q-93 -77 -93 -244h411zM1027 304l66 -234q-186 -95 -389 -96q-390 0 -540 284q-71 137 -67 308t48 283t121 188q160 159 406 159q149 0 258 -66q223 -136 221 -464v-164h-694q4 -132 77 -212q73 -79 197 -78q171 1 296 92z M546 1927h254l258 -619h-274l-112 384l-112 -384h-272z" />
<glyph unicode="&#xeb;" horiz-adv-x="1233" d="M867 676q3 284 -201 284q-68 0 -117 -40q-93 -77 -93 -244h411zM1027 304l66 -234q-186 -95 -389 -96q-390 0 -540 284q-71 137 -67 308t48 283t121 188q160 159 406 159q149 0 258 -66q223 -136 221 -464v-164h-694q4 -132 77 -212q73 -79 197 -78q171 1 296 92z M798 1514q0 83 55.5 138.5t137.5 55.5t139 -55.5t57 -138.5t-57 -138.5t-139 -55.5t-137.5 55.5t-55.5 138.5zM128 1514q0 83 55.5 138.5t137.5 55.5t139 -55.5t57 -138.5t-57 -138.5t-139 -55.5t-137.5 55.5t-55.5 138.5z" />
<glyph unicode="&#xec;" horiz-adv-x="680" d="M530 0h-350v1160h350v-1160zM342 1308l-358 542l312 145l203 -613z" />
<glyph unicode="&#xed;" horiz-adv-x="677" d="M347 1308l-157 74l203 613l312 -145zM520 0h-350v1160h350v-1160z" />
<glyph unicode="&#xee;" horiz-adv-x="675" d="M204 1927h254l258 -619h-274l-112 384l-112 -384h-272zM500 0h-350v1160h350v-1160z" />
<glyph unicode="&#xef;" horiz-adv-x="718" d="M510 0h-350v1160h350v-1160zM-191 1514q0 83 53.5 138.5t135.5 55.5t135.5 -55.5t53.5 -138.5t-53.5 -138.5t-135.5 -55.5t-135.5 55.5t-53.5 138.5zM479 1514q0 83 53.5 138.5t135.5 55.5t135.5 -55.5t53.5 -138.5t-53.5 -138.5t-135.5 -55.5t-135.5 55.5t-53.5 138.5z " />
<glyph unicode="&#xf0;" horiz-adv-x="1262" d="M428 586q0 -72 9 -132.5t30.5 -115.5t63 -86.5t99.5 -31.5q54 0 95 28.5t64 77.5t34 106.5t11 122.5v301q-98 96 -235 96q-46 0 -78.5 -22.5t-50 -56t-27.5 -86t-12.5 -96.5t-2.5 -105zM1184 612q0 -163 -41.5 -284t-120.5 -196t-188 -111.5t-249 -36.5 q-132 0 -231.5 47.5t-158.5 132t-88 190.5t-29 232q0 177 52 311.5t154 211.5t241 77q207 0 309 -140q-12 74 -86 180q-40 58 -89 112l-234 -75l-42 150l152 49q-80 71 -154 113l150 177q74 -46 130 -85t127 -101l19 -17l294 95l42 -150l-216 -70q45 -57 92 -134 q54 -88 88 -185t55.5 -224t21.5 -269z" />
<glyph unicode="&#xf1;" horiz-adv-x="1363" d="M516 1011q90 185 305.5 185t313.5 -117.5t98 -357.5v-721h-351v747q0 117 -35.5 164.5t-111 50t-126 -29.5t-75.5 -76v-856h-351v1160h266zM919 1308q-47 0 -95 16q-50 15 -89 38l-76 44q-36 22 -68.5 37.5t-55.5 15.5q-31 0 -45.5 -28.5t-14.5 -96.5h-208 q0 166 57.5 252t172.5 86q48 0 94 -14q49 -16 81 -36l69 -43q35 -22 67 -35q35 -15 65 -15q35 0 46.5 20.5t11.5 83.5h220q0 -148 -62.5 -236.5t-169.5 -88.5z" />
<glyph unicode="&#xf2;" d="M640 208q112 0 166 91t54 285t-54 285t-166 91t-166 -91t-54 -285t54 -285t166 -91zM639 1196q273 0 421 -161.5t148 -452.5q0 -289 -147 -448.5t-421 -159.5t-422 159.5t-148 448.5q0 291 148 452.5t421 161.5zM670 1308l-358 542l312 145l203 -613z" />
<glyph unicode="&#xf3;" d="M640 208q112 0 166 91t54 285t-54 285t-166 91t-166 -91t-54 -285t54 -285t166 -91zM639 1196q273 0 421 -161.5t148 -452.5q0 -289 -147 -448.5t-421 -159.5t-422 159.5t-148 448.5q0 291 148 452.5t421 161.5zM670 1308l-157 74l203 613l312 -145z" />
<glyph unicode="&#xf4;" d="M640 208q112 0 166 91t54 285t-54 285t-166 91t-166 -91t-54 -285t54 -285t166 -91zM639 1196q273 0 421 -161.5t148 -452.5q0 -289 -147 -448.5t-421 -159.5t-422 159.5t-148 448.5q0 291 148 452.5t421 161.5zM523 1927h254l258 -619h-274l-112 384l-112 -384h-272z " />
<glyph unicode="&#xf5;" d="M640 208q112 0 166 91t54 285t-54 285t-166 91t-166 -91t-54 -285t54 -285t166 -91zM639 1196q273 0 421 -161.5t148 -452.5q0 -289 -147 -448.5t-421 -159.5t-422 159.5t-148 448.5q0 291 148 452.5t421 161.5zM860 1308q-47 0 -96 16q-49 15 -88 38l-76 44 q-36 22 -68.5 37.5t-55.5 15.5q-31 0 -45.5 -28.5t-14.5 -96.5h-208q0 166 57.5 252t172.5 86q48 0 94 -14q49 -16 81 -36l69 -43q35 -22 68 -35q34 -15 64 -15q35 0 46.5 20.5t11.5 83.5h220q0 -148 -62.5 -236.5t-169.5 -88.5z" />
<glyph unicode="&#xf6;" d="M640 208q112 0 166 91t54 285t-54 285t-166 91t-166 -91t-54 -285t54 -285t166 -91zM639 1196q273 0 421 -161.5t148 -452.5q0 -289 -147 -448.5t-421 -159.5t-422 159.5t-148 448.5q0 291 148 452.5t421 161.5zM787 1514q0 83 55.5 138.5t137.5 55.5t139 -55.5 t57 -138.5t-57 -138.5t-139 -55.5t-137.5 55.5t-55.5 138.5zM117 1514q0 83 55.5 138.5t137.5 55.5t139 -55.5t57 -138.5t-57 -138.5t-139 -55.5t-137.5 55.5t-55.5 138.5z" />
<glyph unicode="&#xf7;" horiz-adv-x="1190" d="M1098 593h-1004v262h1004v-262zM412 306q0 83 53.5 138.5t135.5 55.5t135.5 -55.5t53.5 -138.5t-53.5 -138.5t-135.5 -55.5t-135.5 55.5t-53.5 138.5zM409 1144q0 83 53.5 138.5t135.5 55.5t135.5 -55.5t53.5 -138.5t-53.5 -138.5t-135.5 -55.5t-135.5 55.5t-53.5 138.5z " />
<glyph unicode="&#xf8;" horiz-adv-x="1294" d="M647 188q149 0 223 135q55 100 55 261q0 56 -6.5 104t-16.5 80.5t-22 58.5t-24.5 40.5t-22.5 24.5t-16 14l-6 3l-237 -714q27 -7 73 -7zM507 -4l-58 -173l-106 36l57 167q-157 62 -239.5 205.5t-82.5 350.5q0 281 148 442.5t421 161.5q69 0 132 -11l64 189l104 -36 l-61 -182q161 -61 245.5 -207t84.5 -357q0 -279 -147.5 -438.5t-421.5 -159.5q-74 0 -140 12zM476 261l240 712q-29 7 -69 7q-160 0 -227 -157l-1 -1v-1v-1h-1v-1v-1l-1 -1v-1l-1 -1v-1v-1l-1 -1v-1v-1l-1 -1v-1l-1 -1v-1v-1h-1v-1v-1v-1l-1 -1v-1l-1 -1v-1v-1v-1h-1v-1v-1 l-1 -1v-1v-1l-1 -1v-1v-1l-1 -1v-1v-1v-1l-1 -1v-1v-1l-1 -1v-1v-1l-1 -1v-1v-1v-1l-1 -1v-1v-1l-1 -1v-1v-1l-1 -1v-1v-1v-1v-1l-1 -1v-1v-1l-1 -1v-1v-1v-1l-1 -1v-1v-1v-1v-1l-1 -1v-1v-1l-1 -1v-1v-1v-1v-1l-1 -1v-1v-1v-1v-1l-1 -1v-1v-1v-1l-1 -1v-1v-1v-1v-1v-1h-1 v-1v-1v-1v-1v-1l-1 -1v-1v-1v-1v-1l-1 -1v-1v-1v-1v-1v-1v-1h-1v-1v-1v-1v-1v-1v-1l-1 -1v-1v-1v-1v-1v-1v-1l-1 -1v-1v-1v-1v-1v-1v-1v-1h-1v-1v-1v-1v-1v-1l-6 -80v-21q0 -65 10 -122t24 -92.5t28.5 -61t24 -36.5t10.5 -11z" />
<glyph unicode="&#xf9;" horiz-adv-x="1351" d="M546 423q-1 -99 34 -157q33 -54 116 -58q107 8 186 96v856h351v-1160h-247l-77 177q-43 -110 -92 -147q-71 -56 -189 -56q-218 0 -323 119t-105 356v711h346v-737zM640 1308l-358 542l312 145l203 -613z" />
<glyph unicode="&#xfa;" horiz-adv-x="1351" d="M546 423q-1 -99 34 -157q33 -54 116 -58q107 8 186 96v856h351v-1160h-247l-77 177q-43 -110 -92 -147q-71 -56 -189 -56q-218 0 -323 119t-105 356v711h346v-737zM640 1308l-157 74l203 613l312 -145z" />
<glyph unicode="&#xfb;" horiz-adv-x="1351" d="M546 423q-1 -99 34 -157q33 -54 116 -58q107 8 186 96v856h351v-1160h-247l-77 177q-43 -110 -92 -147q-71 -56 -189 -56q-218 0 -323 119t-105 356v711h346v-737zM593 1927h254l258 -619h-274l-112 384l-112 -384h-272z" />
<glyph unicode="&#xfc;" horiz-adv-x="1351" d="M546 423q-1 -99 34 -157q33 -54 116 -58q107 8 186 96v856h351v-1160h-247l-77 177q-43 -110 -92 -147q-71 -56 -189 -56q-218 0 -323 119t-105 356v711h346v-737zM862 1514q0 83 55.5 138.5t137.5 55.5t139 -55.5t57 -138.5t-57 -138.5t-139 -55.5t-137.5 55.5 t-55.5 138.5zM192 1514q0 83 55.5 138.5t137.5 55.5t139 -55.5t57 -138.5t-57 -138.5t-139 -55.5t-137.5 55.5t-55.5 138.5z" />
<glyph unicode="&#xfd;" horiz-adv-x="1227" d="M506 43l-482 1117h358l276 -786l192 786h354l-396 -1192q-72 -222 -204 -328t-352 -108l-98 237q96 7 157 24.5t99 54.5t57 79.5t39 115.5zM586 1308l-157 74l203 613l312 -145z" />
<glyph unicode="&#xfe;" horiz-adv-x="1312" d="M747 -16q-181 0 -273 126v-516h-351v1984h347v-537q39 68 117 102.5t172 34.5q119 0 211 -45.5t149 -127.5t86 -193t29 -247q0 -279 -134 -430t-353 -151zM881 589q0 353 -202 353q-58 0 -101 -13t-62 -26.5t-42 -37.5v-551q98 -96 236 -96q38 0 67.5 15t47.5 44 t29.5 61.5t17 79t7.5 84t2 87.5z" />
<glyph unicode="&#xff;" horiz-adv-x="1227" d="M506 43l-482 1117h358l276 -786l192 786h354l-396 -1192q-72 -222 -204 -328t-352 -108l-98 237q96 7 157 24.5t99 54.5t57 79.5t39 115.5zM762 1514q0 83 55.5 138.5t137.5 55.5t139 -55.5t57 -138.5t-57 -138.5t-139 -55.5t-137.5 55.5t-55.5 138.5zM92 1514 q0 83 55.5 138.5t137.5 55.5t139 -55.5t57 -138.5t-57 -138.5t-139 -55.5t-137.5 55.5t-55.5 138.5z" />
<glyph unicode="&#x178;" horiz-adv-x="1236" d="M616 905l310 673h374l-510 -1060v-518h-348v518l-504 1060h368zM760 1921q0 83 55.5 138.5t137.5 55.5t139 -55.5t57 -138.5t-57 -138.5t-139 -55.5t-137.5 55.5t-55.5 138.5zM90 1921q0 83 55.5 138.5t137.5 55.5t139 -55.5t57 -138.5t-57 -138.5t-139 -55.5 t-137.5 55.5t-55.5 138.5z" />
<glyph unicode="&#x2c6;" horiz-adv-x="1229" d="M487 1182h254l258 -619h-274l-112 384l-112 -384h-272z" />
<glyph unicode="&#x2c9;" horiz-adv-x="1003" d="M842 98h-682v127h682v-127z" />
<glyph unicode="&#x2da;" horiz-adv-x="928" d="M284 1316.5q0 -75.5 53.5 -126t127 -50.5t126.5 50.5t53 126t-53 126t-126.5 50.5t-127 -50.5t-53.5 -126zM99 1316.5q0 95.5 51.5 174.5t135 122t179.5 43t179 -43t134 -121.5t51 -174.5t-51 -175t-134 -122t-179 -43t-179.5 43t-135 122t-51.5 174.5z" />
<glyph unicode="&#x2dc;" horiz-adv-x="1222" d="M841 122q-47 0 -95.5 15.5t-88.5 38.5l-76 44q-36 22 -68.5 37.5t-55.5 15.5q-31 0 -45.5 -28.5t-14.5 -96.5h-208q0 166 57.5 252t172.5 86q48 0 94 -14.5t81 -35.5l69 -43q33 -21 67.5 -35.5t64.5 -14.5q35 0 46.5 20.5t11.5 83.5h220q0 -148 -62.5 -236.5 t-169.5 -88.5z" />
<glyph unicode="&#x3bc;" horiz-adv-x="1351" d="M620 -15q-28 0 -60.5 7.5t-51 14.5t-19.5 9v-504l-350 60v1589h350v-884l6 -3q6 -3 18 -8.5t27.5 -12t34.5 -13t37.5 -11.5t39 -8t36.5 -2q124 6 186 77v865h352v-1160h-248l-78 167q-9 -32 -29.5 -62.5t-53.5 -58.5t-84 -45t-113 -17z" />
<glyph unicode="&#x2000;" horiz-adv-x="1207" />
<glyph unicode="&#x2001;" horiz-adv-x="2414" />
<glyph unicode="&#x2002;" horiz-adv-x="1207" />
<glyph unicode="&#x2003;" horiz-adv-x="2414" />
<glyph unicode="&#x2004;" horiz-adv-x="804" />
<glyph unicode="&#x2005;" horiz-adv-x="603" />
<glyph unicode="&#x2006;" horiz-adv-x="402" />
<glyph unicode="&#x2007;" horiz-adv-x="402" />
<glyph unicode="&#x2008;" horiz-adv-x="301" />
<glyph unicode="&#x2009;" horiz-adv-x="482" />
<glyph unicode="&#x200a;" horiz-adv-x="134" />
<glyph unicode="&#x2010;" horiz-adv-x="1120" d="M950 574h-794v262h794v-262z" />
<glyph unicode="&#x2011;" horiz-adv-x="1120" d="M950 574h-794v262h794v-262z" />
<glyph unicode="&#x2013;" horiz-adv-x="1024" d="M156 574v262h698v-262h-698z" />
<glyph unicode="&#x2014;" horiz-adv-x="2048" d="M156 574v262h1722v-262h-1722z" />
<glyph unicode="&#x2018;" horiz-adv-x="670" d="M537 1271v-415h-418v362q0 67 20.5 121.5t51.5 90t81 65.5t95.5 47.5t106.5 35.5l62 -114q-95 -34 -136 -76t-41 -117h178z" />
<glyph unicode="&#x2019;" horiz-adv-x="539" d="M59 1163v415h418v-362q0 -67 -20.5 -121.5t-51.5 -90t-81 -65.5t-95.5 -47.5t-106.5 -35.5l-62 114q95 34 136 76t41 117h-178z" />
<glyph unicode="&#x201a;" horiz-adv-x="672" d="M140 0v415h418v-362q0 -67 -20.5 -121.5t-51.5 -90t-81 -65.5t-95.5 -47.5t-106.5 -35.5l-62 114q95 34 136 76t41 117h-178z" />
<glyph unicode="&#x201c;" horiz-adv-x="1170" d="M517 1271v-415h-418v362q0 67 20.5 121.5t51.5 90t81 65.5t95.5 47.5t106.5 35.5l62 -114q-95 -34 -136 -76t-41 -117h178zM1041 1271v-415h-418v362q0 67 20.5 121.5t51.5 90t81 65.5t95.5 47.5t106.5 35.5l62 -114q-95 -34 -136 -76t-41 -117h178z" />
<glyph unicode="&#x201d;" horiz-adv-x="1002" d="M583 1163v415h418v-362q0 -67 -20.5 -121.5t-51.5 -90t-81 -65.5t-95.5 -47.5t-106.5 -35.5l-62 114q95 34 136 76t41 117h-178zM59 1163v415h418v-362q0 -67 -20.5 -121.5t-51.5 -90t-81 -65.5t-95.5 -47.5t-106.5 -35.5l-62 114q95 34 136 76t41 117h-178z" />
<glyph unicode="&#x201e;" horiz-adv-x="1137" d="M651 0v415h418v-362q0 -67 -20.5 -121.5t-51.5 -90t-81 -65.5t-95.5 -47.5t-106.5 -35.5l-62 114q95 34 136 76t41 117h-178zM127 0v415h418v-362q0 -67 -20.5 -121.5t-51.5 -90t-81 -65.5t-95.5 -47.5t-106.5 -35.5l-62 114q95 34 136 76t41 117h-178z" />
<glyph unicode="&#x2022;" horiz-adv-x="1216" d="M607 317q-102 0 -192 48t-144.5 132t-54.5 183t54.5 183t144.5 132.5t192 48.5t192.5 -48.5t145.5 -132.5t55 -182.5t-55 -183t-145.5 -132.5t-192.5 -48z" />
<glyph unicode="&#x2026;" horiz-adv-x="1673" d="M98 194q0 83 55.5 138.5t137.5 55.5t139 -55.5t57 -138.5t-57 -138.5t-139 -55.5t-137.5 55.5t-55.5 138.5zM640 194q0 83 55.5 138.5t137.5 55.5t139 -55.5t57 -138.5t-57 -138.5t-139 -55.5t-137.5 55.5t-55.5 138.5zM1200 194q0 83 55.5 138.5t137.5 55.5t139 -55.5 t57 -138.5t-57 -138.5t-139 -55.5t-137.5 55.5t-55.5 138.5z" />
<glyph unicode="&#x202f;" horiz-adv-x="482" />
<glyph unicode="&#x2039;" horiz-adv-x="1194" d="M132 476v236l840 513l1 -301l-546 -330l546 -330l-1 -301z" />
<glyph unicode="&#x203a;" horiz-adv-x="1135" d="M1032 476l-840 -513l-1 301l538 330l-538 330l1 301l840 -513v-236z" />
<glyph unicode="&#x205f;" horiz-adv-x="603" />
<glyph unicode="&#x20ac;" horiz-adv-x="1285" d="M508 743h340l-1 -189h-332q34 -314 271 -314q73 0 148 27t114 54l39 27l70 -254q-54 -52 -157 -91.5t-245 -39.5q-111 0 -204 33t-169 102t-123.5 185t-58.5 271h-133l1 189h127q2 75 5 112h-151v189h178q57 257 217.5 405.5t425.5 149.5h3q64 0 125.5 -11t104 -27 t75 -32t48.5 -27l16 -11l-83 -264q-16 10 -44 25.5t-108.5 41t-153.5 25.5q-105 0 -182 -71.5t-119 -203.5h361v-189h-399q-4 -37 -6 -112z" />
<glyph unicode="&#x2122;" horiz-adv-x="2089" d="M843 1330h-256v-844h-235v844h-261v162h752v-162zM1369 486l-228 692v-692h-195v1006h277l250 -746l259 746h278v-1006h-195v692l-227 -692h-219z" />
<glyph unicode="&#xe000;" horiz-adv-x="1160" d="M0 1160h1160v-1160h-1160v1160z" />
<glyph horiz-adv-x="0" />
</font>
</defs>
</svg>
